<svg id="testSVG" viewBox="0 0 300 300" xmlns="http://www.w3.org/2000/svg" style="background: transparent; max-width: inherit; max-height: inherit;" data-reuse="282d5e42ac9f99fb592a1e460fc5f09a"><svg width="300" height="300"><defs><clipPath id="clip-path-dot-color"><circle cx="10" cy="100" r="5" transform="rotate(0,10,100)"/><path d="M 5 115v 10h 5a 5 5, 0, 0, 0, 0 -10" transform="rotate(-90,10,120)"/><rect x="5" y="125" width="10" height="10" transform="rotate(0,10,130)"/><rect x="5" y="135" width="10" height="10" transform="rotate(0,10,140)"/><path d="M 5 145v 10h 5a 5 5, 0, 0, 0, 0 -10" transform="rotate(90,10,150)"/><path d="M 5 165v 10h 10v -5a 5 5, 0, 0, 0, -5 -5" transform="rotate(-90,10,170)"/><rect x="5" y="175" width="10" height="10" transform="rotate(0,10,180)"/><rect x="5" y="185" width="10" height="10" transform="rotate(0,10,190)"/><path d="M 5 195v 10h 5a 5 5, 0, 0, 0, 0 -10" transform="rotate(90,10,200)"/><path d="M 15 105v 10h 5a 5 5, 0, 0, 0, 0 -10" transform="rotate(180,20,110)"/><rect x="15" y="165" width="10" height="10" transform="rotate(0,20,170)"/><path d="M 15 205v 10h 5a 5 5, 0, 0, 0, 0 -10" transform="rotate(180,20,210)"/><circle cx="30" cy="90" r="5" transform="rotate(0,30,90)"/><path d="M 25 105v 10h 10v -5a 5 5, 0, 0, 0, -5 -5" transform="rotate(0,30,110)"/><path d="M 25 115v 10h 10v -5a 5 5, 0, 0, 0, -5 -5" transform="rotate(180,30,120)"/><rect x="25" y="165" width="10" height="10" transform="rotate(0,30,170)"/><rect x="25" y="175" width="10" height="10" transform="rotate(0,30,180)"/><rect x="25" y="185" width="10" height="10" transform="rotate(0,30,190)"/><rect x="25" y="195" width="10" height="10" transform="rotate(0,30,200)"/><path d="M 25 205v 10h 10v -5a 5 5, 0, 0, 0, -5 -5" transform="rotate(90,30,210)"/><rect x="35" y="115" width="10" height="10" transform="rotate(0,40,120)"/><path d="M 35 135v 10h 5a 5 5, 0, 0, 0, 0 -10" transform="rotate(-90,40,140)"/><path d="M 35 145v 10h 5a 5 5, 0, 0, 0, 0 -10" transform="rotate(90,40,150)"/><rect x="35" y="165" width="10" height="10" transform="rotate(0,40,170)"/><path d="M 35 185v 10h 10v -5a 5 5, 0, 0, 0, -5 -5" transform="rotate(0,40,190)"/><path d="M 35 195v 10h 10v -5a 5 5, 0, 0, 0, -5 -5" transform="rotate(90,40,200)"/><path d="M 45 85v 10h 10v -5a 5 5, 0, 0, 0, -5 -5" transform="rotate(-90,50,90)"/><rect x="45" y="95" width="10" height="10" transform="rotate(0,50,100)"/><rect x="45" y="105" width="10" height="10" transform="rotate(0,50,110)"/><rect x="45" y="115" width="10" height="10" transform="rotate(0,50,120)"/><path d="M 45 125v 10h 5a 5 5, 0, 0, 0, 0 -10" transform="rotate(90,50,130)"/><path d="M 45 155v 10h 10v -5a 5 5, 0, 0, 0, -5 -5" transform="rotate(-90,50,160)"/><rect x="45" y="165" width="10" height="10" transform="rotate(0,50,170)"/><circle cx="50" cy="210" r="5" transform="rotate(0,50,210)"/><rect x="55" y="85" width="10" height="10" transform="rotate(0,60,90)"/><rect x="55" y="95" width="10" height="10" transform="rotate(0,60,100)"/><rect x="55" y="105" width="10" height="10" transform="rotate(0,60,110)"/><path d="M 55 135v 10h 5a 5 5, 0, 0, 0, 0 -10" transform="rotate(-90,60,140)"/><rect x="55" y="145" width="10" height="10" transform="rotate(0,60,150)"/><rect x="55" y="155" width="10" height="10" transform="rotate(0,60,160)"/><rect x="55" y="165" width="10" height="10" transform="rotate(0,60,170)"/><path d="M 55 185v 10h 10v -5a 5 5, 0, 0, 0, -5 -5" transform="rotate(-90,60,190)"/><path d="M 55 195v 10h 5a 5 5, 0, 0, 0, 0 -10" transform="rotate(90,60,200)"/><path d="M 65 85v 10h 5a 5 5, 0, 0, 0, 0 -10" transform="rotate(0,70,90)"/><rect x="65" y="105" width="10" height="10" transform="rotate(0,70,110)"/><circle cx="70" cy="130" r="5" transform="rotate(0,70,130)"/><path d="M 65 145v 10h 5a 5 5, 0, 0, 0, 0 -10" transform="rotate(0,70,150)"/><rect x="65" y="165" width="10" height="10" transform="rotate(0,70,170)"/><rect x="65" y="185" width="10" height="10" transform="rotate(0,70,190)"/><path d="M 65 205v 10h 5a 5 5, 0, 0, 0, 0 -10" transform="rotate(180,70,210)"/><rect x="75" y="105" width="10" height="10" transform="rotate(0,80,110)"/><path d="M 75 135v 10h 5a 5 5, 0, 0, 0, 0 -10" transform="rotate(180,80,140)"/><path d="M 75 155v 10h 10v -5a 5 5, 0, 0, 0, -5 -5" transform="rotate(-90,80,160)"/><rect x="75" y="165" width="10" height="10" transform="rotate(0,80,170)"/><rect x="75" y="175" width="10" height="10" transform="rotate(0,80,180)"/><rect x="75" y="185" width="10" height="10" transform="rotate(0,80,190)"/><path d="M 75 205v 10h 5a 5 5, 0, 0, 0, 0 -10" transform="rotate(0,80,210)"/><path d="M 85 15v 10h 5a 5 5, 0, 0, 0, 0 -10" transform="rotate(180,90,20)"/><circle cx="90" cy="50" r="5" transform="rotate(0,90,50)"/><circle cx="90" cy="70" r="5" transform="rotate(0,90,70)"/><path d="M 85 85v 10h 5a 5 5, 0, 0, 0, 0 -10" transform="rotate(-90,90,90)"/><rect x="85" y="95" width="10" height="10" transform="rotate(0,90,100)"/><path d="M 85 105v 10h 10v -5a 5 5, 0, 0, 0, -5 -5" transform="rotate(90,90,110)"/><path d="M 85 125v 10h 10v -5a 5 5, 0, 0, 0, -5 -5" transform="rotate(-90,90,130)"/><rect x="85" y="135" width="10" height="10" transform="rotate(0,90,140)"/><path d="M 85 155v 10h 5a 5 5, 0, 0, 0, 0 -10" transform="rotate(0,90,160)"/><path d="M 85 185v 10h 10v -5a 5 5, 0, 0, 0, -5 -5" transform="rotate(0,90,190)"/><path d="M 85 195v 10h 10v -5a 5 5, 0, 0, 0, -5 -5" transform="rotate(180,90,200)"/><circle cx="90" cy="220" r="5" transform="rotate(0,90,220)"/><path d="M 85 235v 10h 10v -5a 5 5, 0, 0, 0, -5 -5" transform="rotate(-90,90,240)"/><path d="M 85 245v 10h 10v -5a 5 5, 0, 0, 0, -5 -5" transform="rotate(180,90,250)"/><circle cx="90" cy="270" r="5" transform="rotate(0,90,270)"/><rect x="95" y="15" width="10" height="10" transform="rotate(0,100,20)"/><path d="M 95 35v 10h 5a 5 5, 0, 0, 0, 0 -10" transform="rotate(180,100,40)"/><path d="M 95 55v 10h 5a 5 5, 0, 0, 0, 0 -10" transform="rotate(180,100,60)"/><path d="M 95 75v 10h 5a 5 5, 0, 0, 0, 0 -10" transform="rotate(180,100,80)"/><path d="M 95 95v 10h 5a 5 5, 0, 0, 0, 0 -10" transform="rotate(0,100,100)"/><path d="M 95 125v 10h 10v -5a 5 5, 0, 0, 0, -5 -5" transform="rotate(0,100,130)"/><path d="M 95 135v 10h 10v -5a 5 5, 0, 0, 0, -5 -5" transform="rotate(90,100,140)"/><circle cx="100" cy="170" r="5" transform="rotate(0,100,170)"/><path d="M 95 195v 10h 10v -5a 5 5, 0, 0, 0, -5 -5" transform="rotate(0,100,200)"/><path d="M 95 205v 10h 10v -5a 5 5, 0, 0, 0, -5 -5" transform="rotate(180,100,210)"/><path d="M 95 225v 10h 5a 5 5, 0, 0, 0, 0 -10" transform="rotate(-90,100,230)"/><rect x="95" y="235" width="10" height="10" transform="rotate(0,100,240)"/><path d="M 95 245v 10h 10v -5a 5 5, 0, 0, 0, -5 -5" transform="rotate(90,100,250)"/><path d="M 95 275v 10h 5a 5 5, 0, 0, 0, 0 -10" transform="rotate(-90,100,280)"/><path d="M 95 285v 10h 10v -5a 5 5, 0, 0, 0, -5 -5" transform="rotate(180,100,290)"/><rect x="105" y="15" width="10" height="10" transform="rotate(0,110,20)"/><path d="M 105 35v 10h 10v -5a 5 5, 0, 0, 0, -5 -5" transform="rotate(0,110,40)"/><rect x="105" y="45" width="10" height="10" transform="rotate(0,110,50)"/><rect x="105" y="55" width="10" height="10" transform="rotate(0,110,60)"/><rect x="105" y="65" width="10" height="10" transform="rotate(0,110,70)"/><path d="M 105 75v 10h 10v -5a 5 5, 0, 0, 0, -5 -5" transform="rotate(90,110,80)"/><path d="M 105 115v 10h 5a 5 5, 0, 0, 0, 0 -10" transform="rotate(180,110,120)"/><circle cx="110" cy="160" r="5" transform="rotate(0,110,160)"/><path d="M 105 175v 10h 5a 5 5, 0, 0, 0, 0 -10" transform="rotate(180,110,180)"/><path d="M 105 205v 10h 10v -5a 5 5, 0, 0, 0, -5 -5" transform="rotate(0,110,210)"/><path d="M 105 215v 10h 10v -5a 5 5, 0, 0, 0, -5 -5" transform="rotate(180,110,220)"/><path d="M 105 255v 10h 10v -5a 5 5, 0, 0, 0, -5 -5" transform="rotate(-90,110,260)"/><path d="M 105 265v 10h 5a 5 5, 0, 0, 0, 0 -10" transform="rotate(90,110,270)"/><rect x="105" y="285" width="10" height="10" transform="rotate(0,110,290)"/><path d="M 115 5v 10h 10v -5a 5 5, 0, 0, 0, -5 -5" transform="rotate(-90,120,10)"/><rect x="115" y="15" width="10" height="10" transform="rotate(0,120,20)"/><path d="M 115 25v 10h 10v -5a 5 5, 0, 0, 0, -5 -5" transform="rotate(180,120,30)"/><rect x="115" y="55" width="10" height="10" transform="rotate(0,120,60)"/><path d="M 115 85v 10h 5a 5 5, 0, 0, 0, 0 -10" transform="rotate(180,120,90)"/><rect x="115" y="115" width="10" height="10" transform="rotate(0,120,120)"/><path d="M 115 135v 10h 5a 5 5, 0, 0, 0, 0 -10" transform="rotate(-90,120,140)"/><path d="M 115 145v 10h 5a 5 5, 0, 0, 0, 0 -10" transform="rotate(90,120,150)"/><rect x="115" y="175" width="10" height="10" transform="rotate(0,120,180)"/><path d="M 115 185v 10h 5a 5 5, 0, 0, 0, 0 -10" transform="rotate(90,120,190)"/><path d="M 115 215v 10h 5a 5 5, 0, 0, 0, 0 -10" transform="rotate(0,120,220)"/><path d="M 115 235v 10h 10v -5a 5 5, 0, 0, 0, -5 -5" transform="rotate(-90,120,240)"/><rect x="115" y="245" width="10" height="10" transform="rotate(0,120,250)"/><rect x="115" y="255" width="10" height="10" transform="rotate(0,120,260)"/><path d="M 115 275v 10h 5a 5 5, 0, 0, 0, 0 -10" transform="rotate(-90,120,280)"/><rect x="115" y="285" width="10" height="10" transform="rotate(0,120,290)"/><rect x="125" y="5" width="10" height="10" transform="rotate(0,130,10)"/><rect x="125" y="25" width="10" height="10" transform="rotate(0,130,30)"/><path d="M 125 55v 10h 10v -5a 5 5, 0, 0, 0, -5 -5" transform="rotate(0,130,60)"/><rect x="125" y="65" width="10" height="10" transform="rotate(0,130,70)"/><rect x="125" y="75" width="10" height="10" transform="rotate(0,130,80)"/><rect x="125" y="85" width="10" height="10" transform="rotate(0,130,90)"/><path d="M 125 95v 10h 5a 5 5, 0, 0, 0, 0 -10" transform="rotate(90,130,100)"/><path d="M 125 115v 10h 10v -5a 5 5, 0, 0, 0, -5 -5" transform="rotate(0,130,120)"/><path d="M 125 125v 10h 5a 5 5, 0, 0, 0, 0 -10" transform="rotate(90,130,130)"/><path d="M 125 165v 10h 5a 5 5, 0, 0, 0, 0 -10" transform="rotate(-90,130,170)"/><rect x="125" y="175" width="10" height="10" transform="rotate(0,130,180)"/><path d="M 125 195v 10h 5a 5 5, 0, 0, 0, 0 -10" transform="rotate(-90,130,200)"/><path d="M 125 205v 10h 5a 5 5, 0, 0, 0, 0 -10" transform="rotate(90,130,210)"/><path d="M 125 235v 10h 5a 5 5, 0, 0, 0, 0 -10" transform="rotate(0,130,240)"/><path d="M 125 255v 10h 10v -5a 5 5, 0, 0, 0, -5 -5" transform="rotate(0,130,260)"/><path d="M 125 265v 10h 10v -5a 5 5, 0, 0, 0, -5 -5" transform="rotate(180,130,270)"/><rect x="125" y="285" width="10" height="10" transform="rotate(0,130,290)"/><path d="M 135 5v 10h 10v -5a 5 5, 0, 0, 0, -5 -5" transform="rotate(0,140,10)"/><rect x="135" y="15" width="10" height="10" transform="rotate(0,140,20)"/><rect x="135" y="25" width="10" height="10" transform="rotate(0,140,30)"/><circle cx="140" cy="50" r="5" transform="rotate(0,140,50)"/><path d="M 135 75v 10h 10v -5a 5 5, 0, 0, 0, -5 -5" transform="rotate(0,140,80)"/><path d="M 135 85v 10h 10v -5a 5 5, 0, 0, 0, -5 -5" transform="rotate(90,140,90)"/><circle cx="140" cy="110" r="5" transform="rotate(0,140,110)"/><circle cx="140" cy="160" r="5" transform="rotate(0,140,160)"/><path d="M 135 175v 10h 5a 5 5, 0, 0, 0, 0 -10" transform="rotate(0,140,180)"/><circle cx="140" cy="230" r="5" transform="rotate(0,140,230)"/><path d="M 135 245v 10h 5a 5 5, 0, 0, 0, 0 -10" transform="rotate(180,140,250)"/><path d="M 135 265v 10h 5a 5 5, 0, 0, 0, 0 -10" transform="rotate(0,140,270)"/><rect x="135" y="285" width="10" height="10" transform="rotate(0,140,290)"/><path d="M 145 25v 10h 10v -5a 5 5, 0, 0, 0, -5 -5" transform="rotate(0,150,30)"/><path d="M 145 35v 10h 10v -5a 5 5, 0, 0, 0, -5 -5" transform="rotate(180,150,40)"/><circle cx="150" cy="70" r="5" transform="rotate(0,150,70)"/><path d="M 145 115v 10h 10v -5a 5 5, 0, 0, 0, -5 -5" transform="rotate(-90,150,120)"/><rect x="145" y="125" width="10" height="10" transform="rotate(0,150,130)"/><path d="M 145 135v 10h 5a 5 5, 0, 0, 0, 0 -10" transform="rotate(90,150,140)"/><circle cx="150" cy="190" r="5" transform="rotate(0,150,190)"/><path d="M 145 205v 10h 5a 5 5, 0, 0, 0, 0 -10" transform="rotate(180,150,210)"/><path d="M 145 245v 10h 5a 5 5, 0, 0, 0, 0 -10" transform="rotate(0,150,250)"/><path d="M 145 275v 10h 5a 5 5, 0, 0, 0, 0 -10" transform="rotate(-90,150,280)"/><rect x="145" y="285" width="10" height="10" transform="rotate(0,150,290)"/><path d="M 155 5v 10h 5a 5 5, 0, 0, 0, 0 -10" transform="rotate(180,160,10)"/><rect x="155" y="35" width="10" height="10" transform="rotate(0,160,40)"/><rect x="155" y="45" width="10" height="10" transform="rotate(0,160,50)"/><path d="M 155 55v 10h 10v -5a 5 5, 0, 0, 0, -5 -5" transform="rotate(180,160,60)"/><circle cx="160" cy="80" r="5" transform="rotate(0,160,80)"/><rect x="155" y="115" width="10" height="10" transform="rotate(0,160,120)"/><path d="M 155 145v 10h 10v -5a 5 5, 0, 0, 0, -5 -5" transform="rotate(-90,160,150)"/><rect x="155" y="155" width="10" height="10" transform="rotate(0,160,160)"/><path d="M 155 165v 10h 10v -5a 5 5, 0, 0, 0, -5 -5" transform="rotate(180,160,170)"/><rect x="155" y="205" width="10" height="10" transform="rotate(0,160,210)"/><rect x="155" y="215" width="10" height="10" transform="rotate(0,160,220)"/><rect x="155" y="225" width="10" height="10" transform="rotate(0,160,230)"/><path d="M 155 235v 10h 10v -5a 5 5, 0, 0, 0, -5 -5" transform="rotate(180,160,240)"/><circle cx="160" cy="260" r="5" transform="rotate(0,160,260)"/><rect x="155" y="285" width="10" height="10" transform="rotate(0,160,290)"/><rect x="165" y="5" width="10" height="10" transform="rotate(0,170,10)"/><rect x="165" y="15" width="10" height="10" transform="rotate(0,170,20)"/><rect x="165" y="25" width="10" height="10" transform="rotate(0,170,30)"/><rect x="165" y="35" width="10" height="10" transform="rotate(0,170,40)"/><path d="M 165 55v 10h 10v -5a 5 5, 0, 0, 0, -5 -5" transform="rotate(0,170,60)"/><path d="M 165 65v 10h 5a 5 5, 0, 0, 0, 0 -10" transform="rotate(90,170,70)"/><path d="M 165 95v 10h 10v -5a 5 5, 0, 0, 0, -5 -5" transform="rotate(-90,170,100)"/><rect x="165" y="105" width="10" height="10" transform="rotate(0,170,110)"/><rect x="165" y="115" width="10" height="10" transform="rotate(0,170,120)"/><path d="M 165 135v 10h 5a 5 5, 0, 0, 0, 0 -10" transform="rotate(-90,170,140)"/><rect x="165" y="145" width="10" height="10" transform="rotate(0,170,150)"/><rect x="165" y="155" width="10" height="10" transform="rotate(0,170,160)"/><path d="M 165 165v 10h 10v -5a 5 5, 0, 0, 0, -5 -5" transform="rotate(90,170,170)"/><path d="M 165 205v 10h 5a 5 5, 0, 0, 0, 0 -10" transform="rotate(0,170,210)"/><rect x="165" y="235" width="10" height="10" transform="rotate(0,170,240)"/><path d="M 165 275v 10h 5a 5 5, 0, 0, 0, 0 -10" transform="rotate(-90,170,280)"/><rect x="165" y="285" width="10" height="10" transform="rotate(0,170,290)"/><path d="M 175 5v 10h 5a 5 5, 0, 0, 0, 0 -10" transform="rotate(0,180,10)"/><rect x="175" y="25" width="10" height="10" transform="rotate(0,180,30)"/><path d="M 175 35v 10h 10v -5a 5 5, 0, 0, 0, -5 -5" transform="rotate(90,180,40)"/><path d="M 175 85v 10h 10v -5a 5 5, 0, 0, 0, -5 -5" transform="rotate(-90,180,90)"/><rect x="175" y="95" width="10" height="10" transform="rotate(0,180,100)"/><rect x="175" y="115" width="10" height="10" transform="rotate(0,180,120)"/><path d="M 175 125v 10h 10v -5a 5 5, 0, 0, 0, -5 -5" transform="rotate(180,180,130)"/><rect x="175" y="145" width="10" height="10" transform="rotate(0,180,150)"/><path d="M 175 185v 10h 5a 5 5, 0, 0, 0, 0 -10" transform="rotate(-90,180,190)"/><path d="M 175 195v 10h 10v -5a 5 5, 0, 0, 0, -5 -5" transform="rotate(180,180,200)"/><path d="M 175 215v 10h 5a 5 5, 0, 0, 0, 0 -10" transform="rotate(-90,180,220)"/><rect x="175" y="225" width="10" height="10" transform="rotate(0,180,230)"/><rect x="175" y="235" width="10" height="10" transform="rotate(0,180,240)"/><path d="M 175 245v 10h 5a 5 5, 0, 0, 0, 0 -10" transform="rotate(90,180,250)"/><rect x="175" y="285" width="10" height="10" transform="rotate(0,180,290)"/><rect x="185" y="25" width="10" height="10" transform="rotate(0,190,30)"/><path d="M 185 45v 10h 5a 5 5, 0, 0, 0, 0 -10" transform="rotate(-90,190,50)"/><rect x="185" y="55" width="10" height="10" transform="rotate(0,190,60)"/><path d="M 185 65v 10h 5a 5 5, 0, 0, 0, 0 -10" transform="rotate(90,190,70)"/><rect x="185" y="85" width="10" height="10" transform="rotate(0,190,90)"/><rect x="185" y="95" width="10" height="10" transform="rotate(0,190,100)"/><rect x="185" y="115" width="10" height="10" transform="rotate(0,190,120)"/><rect x="185" y="125" width="10" height="10" transform="rotate(0,190,130)"/><path d="M 185 145v 10h 10v -5a 5 5, 0, 0, 0, -5 -5" transform="rotate(0,190,150)"/><path d="M 185 155v 10h 10v -5a 5 5, 0, 0, 0, -5 -5" transform="rotate(180,190,160)"/><rect x="185" y="195" width="10" height="10" transform="rotate(0,190,200)"/><circle cx="190" cy="270" r="5" transform="rotate(0,190,270)"/><rect x="185" y="285" width="10" height="10" transform="rotate(0,190,290)"/><path d="M 195 25v 10h 5a 5 5, 0, 0, 0, 0 -10" transform="rotate(0,200,30)"/><rect x="195" y="55" width="10" height="10" transform="rotate(0,200,60)"/><rect x="195" y="85" width="10" height="10" transform="rotate(0,200,90)"/><rect x="195" y="95" width="10" height="10" transform="rotate(0,200,100)"/><path d="M 195 115v 10h 10v -5a 5 5, 0, 0, 0, -5 -5" transform="rotate(0,200,120)"/><path d="M 195 125v 10h 10v -5a 5 5, 0, 0, 0, -5 -5" transform="rotate(90,200,130)"/><path d="M 195 155v 10h 10v -5a 5 5, 0, 0, 0, -5 -5" transform="rotate(0,200,160)"/><rect x="195" y="165" width="10" height="10" transform="rotate(0,200,170)"/><path d="M 195 175v 10h 10v -5a 5 5, 0, 0, 0, -5 -5" transform="rotate(180,200,180)"/><path d="M 195 195v 10h 10v -5a 5 5, 0, 0, 0, -5 -5" transform="rotate(0,200,200)"/><path d="M 195 205v 10h 10v -5a 5 5, 0, 0, 0, -5 -5" transform="rotate(180,200,210)"/><circle cx="200" cy="260" r="5" transform="rotate(0,200,260)"/><path d="M 195 275v 10h 5a 5 5, 0, 0, 0, 0 -10" transform="rotate(-90,200,280)"/><rect x="195" y="285" width="10" height="10" transform="rotate(0,200,290)"/><path d="M 205 5v 10h 5a 5 5, 0, 0, 0, 0 -10" transform="rotate(-90,210,10)"/><path d="M 205 15v 10h 5a 5 5, 0, 0, 0, 0 -10" transform="rotate(90,210,20)"/><circle cx="210" cy="40" r="5" transform="rotate(0,210,40)"/><path d="M 205 55v 10h 10v -5a 5 5, 0, 0, 0, -5 -5" transform="rotate(0,210,60)"/><rect x="205" y="65" width="10" height="10" transform="rotate(0,210,70)"/><rect x="205" y="75" width="10" height="10" transform="rotate(0,210,80)"/><rect x="205" y="85" width="10" height="10" transform="rotate(0,210,90)"/><path d="M 205 95v 10h 10v -5a 5 5, 0, 0, 0, -5 -5" transform="rotate(90,210,100)"/><path d="M 205 145v 10h 5a 5 5, 0, 0, 0, 0 -10" transform="rotate(180,210,150)"/><path d="M 205 175v 10h 10v -5a 5 5, 0, 0, 0, -5 -5" transform="rotate(0,210,180)"/><path d="M 205 185v 10h 10v -5a 5 5, 0, 0, 0, -5 -5" transform="rotate(180,210,190)"/><rect x="205" y="205" width="10" height="10" transform="rotate(0,210,210)"/><rect x="205" y="215" width="10" height="10" transform="rotate(0,210,220)"/><rect x="205" y="225" width="10" height="10" transform="rotate(0,210,230)"/><rect x="205" y="235" width="10" height="10" transform="rotate(0,210,240)"/><path d="M 205 245v 10h 10v -5a 5 5, 0, 0, 0, -5 -5" transform="rotate(180,210,250)"/><path d="M 205 265v 10h 5a 5 5, 0, 0, 0, 0 -10" transform="rotate(180,210,270)"/><rect x="205" y="285" width="10" height="10" transform="rotate(0,210,290)"/><path d="M 215 85v 10h 5a 5 5, 0, 0, 0, 0 -10" transform="rotate(0,220,90)"/><path d="M 215 105v 10h 10v -5a 5 5, 0, 0, 0, -5 -5" transform="rotate(-90,220,110)"/><rect x="215" y="115" width="10" height="10" transform="rotate(0,220,120)"/><rect x="215" y="125" width="10" height="10" transform="rotate(0,220,130)"/><rect x="215" y="135" width="10" height="10" transform="rotate(0,220,140)"/><rect x="215" y="145" width="10" height="10" transform="rotate(0,220,150)"/><rect x="215" y="155" width="10" height="10" transform="rotate(0,220,160)"/><path d="M 215 165v 10h 5a 5 5, 0, 0, 0, 0 -10" transform="rotate(90,220,170)"/><path d="M 215 185v 10h 10v -5a 5 5, 0, 0, 0, -5 -5" transform="rotate(0,220,190)"/><rect x="215" y="195" width="10" height="10" transform="rotate(0,220,200)"/><rect x="215" y="205" width="10" height="10" transform="rotate(0,220,210)"/><rect x="215" y="245" width="10" height="10" transform="rotate(0,220,250)"/><path d="M 215 265v 10h 5a 5 5, 0, 0, 0, 0 -10" transform="rotate(0,220,270)"/><rect x="215" y="285" width="10" height="10" transform="rotate(0,220,290)"/><rect x="225" y="105" width="10" height="10" transform="rotate(0,230,110)"/><rect x="225" y="115" width="10" height="10" transform="rotate(0,230,120)"/><rect x="225" y="135" width="10" height="10" transform="rotate(0,230,140)"/><rect x="225" y="145" width="10" height="10" transform="rotate(0,230,150)"/><path d="M 225 155v 10h 10v -5a 5 5, 0, 0, 0, -5 -5" transform="rotate(90,230,160)"/><path d="M 225 175v 10h 5a 5 5, 0, 0, 0, 0 -10" transform="rotate(180,230,180)"/><rect x="225" y="195" width="10" height="10" transform="rotate(0,230,200)"/><rect x="225" y="205" width="10" height="10" transform="rotate(0,230,210)"/><circle cx="230" cy="230" r="5" transform="rotate(0,230,230)"/><rect x="225" y="245" width="10" height="10" transform="rotate(0,230,250)"/><path d="M 225 285v 10h 5a 5 5, 0, 0, 0, 0 -10" transform="rotate(0,230,290)"/><path d="M 235 95v 10h 10v -5a 5 5, 0, 0, 0, -5 -5" transform="rotate(-90,240,100)"/><rect x="235" y="105" width="10" height="10" transform="rotate(0,240,110)"/><rect x="235" y="115" width="10" height="10" transform="rotate(0,240,120)"/><rect x="235" y="125" width="10" height="10" transform="rotate(0,240,130)"/><rect x="235" y="135" width="10" height="10" transform="rotate(0,240,140)"/><path d="M 235 145v 10h 10v -5a 5 5, 0, 0, 0, -5 -5" transform="rotate(90,240,150)"/><path d="M 235 165v 10h 5a 5 5, 0, 0, 0, 0 -10" transform="rotate(-90,240,170)"/><rect x="235" y="175" width="10" height="10" transform="rotate(0,240,180)"/><rect x="235" y="185" width="10" height="10" transform="rotate(0,240,190)"/><rect x="235" y="195" width="10" height="10" transform="rotate(0,240,200)"/><rect x="235" y="205" width="10" height="10" transform="rotate(0,240,210)"/><rect x="235" y="245" width="10" height="10" transform="rotate(0,240,250)"/><path d="M 235 255v 10h 5a 5 5, 0, 0, 0, 0 -10" transform="rotate(90,240,260)"/><path d="M 245 85v 10h 5a 5 5, 0, 0, 0, 0 -10" transform="rotate(-90,250,90)"/><rect x="245" y="95" width="10" height="10" transform="rotate(0,250,100)"/><path d="M 245 115v 10h 10v -5a 5 5, 0, 0, 0, -5 -5" transform="rotate(0,250,120)"/><rect x="245" y="125" width="10" height="10" transform="rotate(0,250,130)"/><path d="M 245 135v 10h 10v -5a 5 5, 0, 0, 0, -5 -5" transform="rotate(90,250,140)"/><path d="M 245 185v 10h 10v -5a 5 5, 0, 0, 0, -5 -5" transform="rotate(0,250,190)"/><rect x="245" y="195" width="10" height="10" transform="rotate(0,250,200)"/><rect x="245" y="205" width="10" height="10" transform="rotate(0,250,210)"/><rect x="245" y="215" width="10" height="10" transform="rotate(0,250,220)"/><rect x="245" y="225" width="10" height="10" transform="rotate(0,250,230)"/><rect x="245" y="235" width="10" height="10" transform="rotate(0,250,240)"/><path d="M 245 245v 10h 10v -5a 5 5, 0, 0, 0, -5 -5" transform="rotate(90,250,250)"/><path d="M 245 275v 10h 10v -5a 5 5, 0, 0, 0, -5 -5" transform="rotate(-90,250,280)"/><path d="M 245 285v 10h 5a 5 5, 0, 0, 0, 0 -10" transform="rotate(90,250,290)"/><path d="M 255 95v 10h 5a 5 5, 0, 0, 0, 0 -10" transform="rotate(0,260,100)"/><path d="M 255 125v 10h 5a 5 5, 0, 0, 0, 0 -10" transform="rotate(0,260,130)"/><path d="M 255 145v 10h 5a 5 5, 0, 0, 0, 0 -10" transform="rotate(180,260,150)"/><path d="M 255 165v 10h 10v -5a 5 5, 0, 0, 0, -5 -5" transform="rotate(-90,260,170)"/><path d="M 255 175v 10h 5a 5 5, 0, 0, 0, 0 -10" transform="rotate(90,260,180)"/><path d="M 255 235v 10h 5a 5 5, 0, 0, 0, 0 -10" transform="rotate(0,260,240)"/><path d="M 255 255v 10h 5a 5 5, 0, 0, 0, 0 -10" transform="rotate(-90,260,260)"/><rect x="255" y="265" width="10" height="10" transform="rotate(0,260,270)"/><rect x="255" y="275" width="10" height="10" transform="rotate(0,260,280)"/><path d="M 265 145v 10h 5a 5 5, 0, 0, 0, 0 -10" transform="rotate(0,270,150)"/><path d="M 265 165v 10h 5a 5 5, 0, 0, 0, 0 -10" transform="rotate(0,270,170)"/><path d="M 265 185v 10h 5a 5 5, 0, 0, 0, 0 -10" transform="rotate(-90,270,190)"/><rect x="265" y="195" width="10" height="10" transform="rotate(0,270,200)"/><rect x="265" y="205" width="10" height="10" transform="rotate(0,270,210)"/><path d="M 265 215v 10h 10v -5a 5 5, 0, 0, 0, -5 -5" transform="rotate(180,270,220)"/><path d="M 265 265v 10h 10v -5a 5 5, 0, 0, 0, -5 -5" transform="rotate(0,270,270)"/><rect x="265" y="275" width="10" height="10" transform="rotate(0,270,280)"/><path d="M 265 285v 10h 10v -5a 5 5, 0, 0, 0, -5 -5" transform="rotate(180,270,290)"/><circle cx="280" cy="90" r="5" transform="rotate(0,280,90)"/><path d="M 275 105v 10h 10v -5a 5 5, 0, 0, 0, -5 -5" transform="rotate(-90,280,110)"/><path d="M 275 115v 10h 10v -5a 5 5, 0, 0, 0, -5 -5" transform="rotate(180,280,120)"/><path d="M 275 175v 10h 5a 5 5, 0, 0, 0, 0 -10" transform="rotate(180,280,180)"/><path d="M 275 215v 10h 10v -5a 5 5, 0, 0, 0, -5 -5" transform="rotate(0,280,220)"/><rect x="275" y="225" width="10" height="10" transform="rotate(0,280,230)"/><path d="M 275 235v 10h 5a 5 5, 0, 0, 0, 0 -10" transform="rotate(90,280,240)"/><circle cx="280" cy="260" r="5" transform="rotate(0,280,260)"/><rect x="275" y="275" width="10" height="10" transform="rotate(0,280,280)"/><path d="M 275 285v 10h 10v -5a 5 5, 0, 0, 0, -5 -5" transform="rotate(90,280,290)"/><path d="M 285 105v 10h 10v -5a 5 5, 0, 0, 0, -5 -5" transform="rotate(0,290,110)"/><rect x="285" y="115" width="10" height="10" transform="rotate(0,290,120)"/><rect x="285" y="125" width="10" height="10" transform="rotate(0,290,130)"/><rect x="285" y="135" width="10" height="10" transform="rotate(0,290,140)"/><rect x="285" y="145" width="10" height="10" transform="rotate(0,290,150)"/><path d="M 285 155v 10h 5a 5 5, 0, 0, 0, 0 -10" transform="rotate(90,290,160)"/><path d="M 285 175v 10h 5a 5 5, 0, 0, 0, 0 -10" transform="rotate(0,290,180)"/><path d="M 285 195v 10h 5a 5 5, 0, 0, 0, 0 -10" transform="rotate(-90,290,200)"/><path d="M 285 205v 10h 5a 5 5, 0, 0, 0, 0 -10" transform="rotate(90,290,210)"/><circle cx="290" cy="250" r="5" transform="rotate(0,290,250)"/><path d="M 285 265v 10h 5a 5 5, 0, 0, 0, 0 -10" transform="rotate(-90,290,270)"/><path d="M 285 275v 10h 10v -5a 5 5, 0, 0, 0, -5 -5" transform="rotate(90,290,280)"/><path clip-rule="evenodd" d="M 5 30v 20a 25 25, 0, 0, 0, 25 25h 20a 25 25, 0, 0, 0, 25 -25v -20a 25 25, 0, 0, 0, -25 -25h -20a 25 25, 0, 0, 0, -25 25M 30 15h 20a 15 15, 0, 0, 1, 15 15v 20a 15 15, 0, 0, 1, -15 15h -20a 15 15, 0, 0, 1, -15 -15v -20a 15 15, 0, 0, 1, 15 -15" transform="rotate(0,40,40)"/><circle cx="40" cy="40" r="15" transform="rotate(0,40,40)"/><path clip-rule="evenodd" d="M 225 30v 20a 25 25, 0, 0, 0, 25 25h 20a 25 25, 0, 0, 0, 25 -25v -20a 25 25, 0, 0, 0, -25 -25h -20a 25 25, 0, 0, 0, -25 25M 250 15h 20a 15 15, 0, 0, 1, 15 15v 20a 15 15, 0, 0, 1, -15 15h -20a 15 15, 0, 0, 1, -15 -15v -20a 15 15, 0, 0, 1, 15 -15" transform="rotate(90,260,40)"/><circle cx="260" cy="40" r="15" transform="rotate(90,260,40)"/><path clip-rule="evenodd" d="M 5 250v 20a 25 25, 0, 0, 0, 25 25h 20a 25 25, 0, 0, 0, 25 -25v -20a 25 25, 0, 0, 0, -25 -25h -20a 25 25, 0, 0, 0, -25 25M 30 235h 20a 15 15, 0, 0, 1, 15 15v 20a 15 15, 0, 0, 1, -15 15h -20a 15 15, 0, 0, 1, -15 -15v -20a 15 15, 0, 0, 1, 15 -15" transform="rotate(-90,40,260)"/><circle cx="40" cy="260" r="15" transform="rotate(-90,40,260)"/></clipPath></defs><rect x="0" y="0" height="300" width="300" clip-path="url('#clip-path-background-color')" fill="transparent" style="transform: translate(45px, 16px) scale(0.7);"/><rect x="0" y="0" height="300" width="300" clip-path="url('#clip-path-dot-color')" fill="#0f41ff" style="transform: translate(45px, 16px) scale(0.7);"/></svg><svg class="border-seven" data-name="Layer 1" xmlns="http://www.w3.org/2000/svg" width="300" height="300" viewBox="0 0 300 300">
<g style="fill: rgb(15, 65, 255);">
<g>
<path d="M71.6,252.26h5.84a1.63,1.63,0,0,0,1.63-1.63A1.69,1.69,0,0,0,77.44,249H71.69A1.65,1.65,0,0,0,70,250.63,1.62,1.62,0,0,0,71.6,252.26Z"/>
<path d="M74.52,278.78a2.31,2.31,0,0,0-2.32,2.31,2.32,2.32,0,1,0,2.32-2.31Z"/>
<polygon points="65.94 277.32 83.01 277.32 83.01 254.66 65.94 254.49 65.94 277.32"/>
</g>
<g>
<path d="M148.33,273.82c0,2.19,1.88,3.15,3.94,3.15a8,8,0,0,0,5.1-2v-3.8a15.49,15.49,0,0,0-4.18-.62C150.8,270.57,148.33,271.32,148.33,273.82Z"/>
<path d="M230.73,263c-2.8,0-5.65,2-6.19,5.86h11.74C236.18,264.34,233,263,230.73,263Z"/>
<path d="M258,1.51H42.1A11.9,11.9,0,0,0,30.26,13.26V287.15A11.78,11.78,0,0,0,42,298.91H258a11.77,11.77,0,0,0,11.75-11.76V13.26A11.77,11.77,0,0,0,258,1.51ZM85.67,261.61v19.74a3.54,3.54,0,0,1-3.51,3.52H67a3.53,3.53,0,0,1-3.52-3.52V250.46A3.54,3.54,0,0,1,67,246.94H82.16a3.59,3.59,0,0,1,3.51,3.52Zm31.92,17.18a13.71,13.71,0,0,1-7.33-2.09v-2.36a12.2,12.2,0,0,0,7.33,2.5c3.32,0,5.75-1.61,5.75-4.83,0-3.66-3.18-4.45-6.4-5.34-3.56-1-7-2.3-7-6.78,0-4.25,3.08-6.64,7.56-6.64a13,13,0,0,1,7,1.95v2.26a12.39,12.39,0,0,0-7-2.26c-3.22,0-5.45,1.54-5.45,4.55,0,3.53,3.12,4.25,6.2,5.1,3.53,1,7.26,2.3,7.26,7.06C125.43,276.25,122.25,278.79,117.59,278.79Zm25-1.27a10.18,10.18,0,0,1-5,1.27,8.51,8.51,0,0,1-8.9-8.73,8.71,8.71,0,0,1,9.07-8.87,10.1,10.1,0,0,1,4.59,1.09v2.13a8.81,8.81,0,0,0-4.66-1.37,6.75,6.75,0,0,0-7,7,6.66,6.66,0,0,0,7,6.88,8,8,0,0,0,4.93-1.61Zm19.62.89a3.67,3.67,0,0,1-1.47.28,3,3,0,0,1-3-2h-.07a8.84,8.84,0,0,1-5.62,2.09,6.59,6.59,0,0,1-4-1.17,4.36,4.36,0,0,1-1.74-3.63,4.45,4.45,0,0,1,2.12-3.9A8.69,8.69,0,0,1,153,269a16.32,16.32,0,0,1,4.35.62v-1.95a4.26,4.26,0,0,0-1.23-3.53,5.13,5.13,0,0,0-3.46-1.06,8.87,8.87,0,0,0-5.17,1.64v-2a10.31,10.31,0,0,1,5.38-1.51,7.29,7.29,0,0,1,4.79,1.48,5.61,5.61,0,0,1,1.71,4.52v7.29c0,1.44.34,2.5,1.71,2.5a2.3,2.3,0,0,0,1.1-.27Zm17.8,0h-2v-10.1c0-2-.31-3.22-1.06-4a4.15,4.15,0,0,0-3.15-1.2,8.71,8.71,0,0,0-6.13,3v12.32h-2V261.57h2v2.36l.07,0a9.62,9.62,0,0,1,6.47-2.77,5.68,5.68,0,0,1,4.31,1.71c1,1.1,1.51,2.53,1.51,5Zm37.66,0h-2.09V263.52c0-2.16,0-4.35,0-6.34l-.06,0c-1.17,1.71-2.47,3.59-3.7,5.37L206,271l-5.85-8.43c-1.23-1.78-2.54-3.66-3.7-5.37l-.07,0c0,2,0,4.18,0,6.34v14.89h-2V253.62h2L206,267.45l9.62-13.83h2Zm20.54-7.87H224.47a6.74,6.74,0,0,0,7.15,6.43,9.37,9.37,0,0,0,5.65-2v2.19a11.36,11.36,0,0,1-5.78,1.58c-5.17,0-9-3.56-9-8.8s3.77-8.8,8.32-8.8c4.08,0,7.47,2.91,7.47,7.91C238.27,269.61,238.23,270.13,238.2,270.54Zm22.53-44.91a6.33,6.33,0,0,1-6.35,6.35H45.7a6.34,6.34,0,0,1-6.35-6.35V16.86a6.35,6.35,0,0,1,6.35-6.35H254.38a6.34,6.34,0,0,1,6.35,6.35Z"/>
</g>
</g>
</svg></svg>